<?xml version="1.0" encoding="UTF-8" standalone="no"?>
<svg xmlns="http://www.w3.org/2000/svg" xmlns:xlink="http://www.w3.org/1999/xlink" style="isolation:isolate" viewBox="0 0 512 512" width="512pt" height="512pt">
    <defs>
        <clipPath id="_clipPath_DJ09OvX0OQxbaj3yLpkR5JK8TQYS3y6g">
            <rect width="512" height="512" />
        </clipPath>
    </defs>
    <g clip-path="url(#_clipPath_DJ09OvX0OQxbaj3yLpkR5JK8TQYS3y6g)">
        <linearGradient id="_lgradient_0" x1="{pos1_x}" y1="{pos1_y}" x2="{pos2_x}" y2="{pos2_y}" gradientTransform="matrix(407.67,0,0,93.182,52.408,219.636)" gradientUnits="userSpaceOnUse">
            <stop offset="0%" stop-opacity="1" style="stop-color:rgb({pos1_color})" />
            <stop offset="100%" stop-opacity="1" style="stop-color:rgb({pos2_color})" />
        </linearGradient>
        <path d=" M 101.555 292.364 L 52.408 292.364 L 52.408 219.636 L 101.413 219.636 L 101.413 232.314 L 67.784 232.314 L 67.784 249.643 L 98.892 249.643 L 98.892 262.321 L 67.784 262.321 L 67.784 279.686 L 101.555 279.686 L 101.555 292.364 L 101.555 292.364 Z  M 110.398 237.818 L 126.023 237.818 L 136.037 256.888 L 146.3 237.818 L 161.818 237.818 L 146.016 265.091 L 162.244 292.364 L 146.797 292.364 L 136.037 273.507 L 125.455 292.364 L 109.83 292.364 L 126.023 265.091 L 110.398 237.818 L 110.398 237.818 Z  M 186.072 293.393 L 186.072 293.393 L 186.072 293.393 Q 180.852 293.393 176.768 291.565 L 176.768 291.565 L 176.768 291.565 Q 172.685 289.736 170.323 286.131 L 170.323 286.131 L 170.323 286.131 Q 167.962 282.527 167.962 277.129 L 167.962 277.129 L 167.962 277.129 Q 167.962 272.584 169.631 269.494 L 169.631 269.494 L 169.631 269.494 Q 171.3 266.405 174.176 264.523 L 174.176 264.523 L 174.176 264.523 Q 177.053 262.641 180.728 261.682 L 180.728 261.682 L 180.728 261.682 Q 184.403 260.723 188.452 260.332 L 188.452 260.332 L 188.452 260.332 Q 193.21 259.835 196.122 259.391 L 196.122 259.391 L 196.122 259.391 Q 199.034 258.947 200.348 258.06 L 200.348 258.06 L 200.348 258.06 Q 201.662 257.172 201.662 255.432 L 201.662 255.432 L 201.662 255.219 L 201.662 255.219 Q 201.662 251.845 199.549 249.999 L 199.549 249.999 L 199.549 249.999 Q 197.436 248.152 193.565 248.152 L 193.565 248.152 L 193.565 248.152 Q 189.482 248.152 187.067 249.945 L 187.067 249.945 L 187.067 249.945 Q 184.652 251.739 183.871 254.438 L 183.871 254.438 L 169.879 253.301 L 169.879 253.301 Q 170.945 248.33 174.07 244.69 L 174.07 244.69 L 174.07 244.69 Q 177.195 241.05 182.148 239.079 L 182.148 239.079 L 182.148 239.079 Q 187.102 237.108 193.636 237.108 L 193.636 237.108 L 193.636 237.108 Q 198.182 237.108 202.354 238.173 L 202.354 238.173 L 202.354 238.173 Q 206.527 239.239 209.776 241.476 L 209.776 241.476 L 209.776 241.476 Q 213.026 243.713 214.908 247.211 L 214.908 247.211 L 214.908 247.211 Q 216.79 250.709 216.79 255.574 L 216.79 255.574 L 216.79 292.364 L 202.443 292.364 L 202.443 284.8 L 202.017 284.8 L 202.017 284.8 Q 200.703 287.357 198.501 289.292 L 198.501 289.292 L 198.501 289.292 Q 196.3 291.227 193.21 292.31 L 193.21 292.31 L 193.21 292.31 Q 190.121 293.393 186.072 293.393 Z  M 190.405 282.953 L 190.405 282.953 L 190.405 282.953 Q 193.743 282.953 196.3 281.621 L 196.3 281.621 L 196.3 281.621 Q 198.857 280.29 200.313 278.017 L 200.313 278.017 L 200.313 278.017 Q 201.768 275.744 201.768 272.868 L 201.768 272.868 L 201.768 267.08 L 201.768 267.08 Q 201.058 267.541 199.833 267.914 L 199.833 267.914 L 199.833 267.914 Q 198.608 268.287 197.081 268.589 L 197.081 268.589 L 197.081 268.589 Q 195.554 268.891 194.027 269.121 L 194.027 269.121 L 194.027 269.121 Q 192.5 269.352 191.257 269.53 L 191.257 269.53 L 191.257 269.53 Q 188.594 269.92 186.605 270.773 L 186.605 270.773 L 186.605 270.773 Q 184.616 271.625 183.516 273.063 L 183.516 273.063 L 183.516 273.063 Q 182.415 274.501 182.415 276.632 L 182.415 276.632 L 182.415 276.632 Q 182.415 279.722 184.67 281.337 L 184.67 281.337 L 184.67 281.337 Q 186.925 282.953 190.405 282.953 Z  M 243.672 292.364 L 228.544 292.364 L 228.544 237.818 L 242.962 237.818 L 242.962 247.442 L 243.601 247.442 L 243.601 247.442 Q 245.305 242.648 249.283 239.878 L 249.283 239.878 L 249.283 239.878 Q 253.26 237.108 258.8 237.108 L 258.8 237.108 L 258.8 237.108 Q 264.411 237.108 268.352 239.896 L 268.352 239.896 L 268.352 239.896 Q 272.294 242.683 273.608 247.442 L 273.608 247.442 L 274.176 247.442 L 274.176 247.442 Q 275.845 242.754 280.231 239.931 L 280.231 239.931 L 280.231 239.931 Q 284.616 237.108 290.618 237.108 L 290.618 237.108 L 290.618 237.108 Q 298.253 237.108 303.029 241.955 L 303.029 241.955 L 303.029 241.955 Q 307.805 246.803 307.805 255.68 L 307.805 255.68 L 307.805 292.364 L 292.713 292.364 L 292.713 258.663 L 292.713 258.663 Q 292.713 254.118 290.298 251.845 L 290.298 251.845 L 290.298 251.845 Q 287.884 249.572 284.261 249.572 L 284.261 249.572 L 284.261 249.572 Q 280.142 249.572 277.834 252.183 L 277.834 252.183 L 277.834 252.183 Q 275.526 254.793 275.526 259.054 L 275.526 259.054 L 275.526 292.364 L 260.859 292.364 L 260.859 258.344 L 260.859 258.344 Q 260.859 254.331 258.569 251.952 L 258.569 251.952 L 258.569 251.952 Q 256.278 249.572 252.55 249.572 L 252.55 249.572 L 252.55 249.572 Q 250.028 249.572 248.022 250.833 L 248.022 250.833 L 248.022 250.833 Q 246.016 252.094 244.844 254.349 L 244.844 254.349 L 244.844 254.349 Q 243.672 256.604 243.672 259.622 L 243.672 259.622 L 243.672 292.364 L 243.672 292.364 Z  M 334.865 312.818 L 319.737 312.818 L 319.737 237.818 L 334.652 237.818 L 334.652 246.98 L 335.327 246.98 L 335.327 246.98 Q 336.321 244.778 338.221 242.488 L 338.221 242.488 L 338.221 242.488 Q 340.121 240.197 343.192 238.653 L 343.192 238.653 L 343.192 238.653 Q 346.264 237.108 350.845 237.108 L 350.845 237.108 L 350.845 237.108 Q 356.811 237.108 361.854 240.215 L 361.854 240.215 L 361.854 240.215 Q 366.896 243.322 369.915 249.555 L 369.915 249.555 L 369.915 249.555 Q 372.933 255.787 372.933 265.162 L 372.933 265.162 L 372.933 265.162 Q 372.933 274.288 370.004 280.556 L 370.004 280.556 L 370.004 280.556 Q 367.074 286.824 362.049 290.038 L 362.049 290.038 L 362.049 290.038 Q 357.024 293.251 350.81 293.251 L 350.81 293.251 L 350.81 293.251 Q 346.406 293.251 343.335 291.795 L 343.335 291.795 L 343.335 291.795 Q 340.263 290.339 338.31 288.12 L 338.31 288.12 L 338.31 288.12 Q 336.357 285.901 335.327 283.628 L 335.327 283.628 L 334.865 283.628 L 334.865 312.818 L 334.865 312.818 Z  M 334.545 265.091 L 334.545 265.091 L 334.545 265.091 Q 334.545 269.956 335.895 273.578 L 335.895 273.578 L 335.895 273.578 Q 337.244 277.2 339.801 279.207 L 339.801 279.207 L 339.801 279.207 Q 342.358 281.213 346.016 281.213 L 346.016 281.213 L 346.016 281.213 Q 349.709 281.213 352.266 279.171 L 352.266 279.171 L 352.266 279.171 Q 354.822 277.129 356.154 273.489 L 356.154 273.489 L 356.154 273.489 Q 357.486 269.849 357.486 265.091 L 357.486 265.091 L 357.486 265.091 Q 357.486 260.368 356.172 256.781 L 356.172 256.781 L 356.172 256.781 Q 354.858 253.195 352.301 251.17 L 352.301 251.17 L 352.301 251.17 Q 349.744 249.146 346.016 249.146 L 346.016 249.146 L 346.016 249.146 Q 342.322 249.146 339.783 251.099 L 339.783 251.099 L 339.783 251.099 Q 337.244 253.053 335.895 256.639 L 335.895 256.639 L 335.895 256.639 Q 334.545 260.226 334.545 265.091 Z  M 382.983 219.636 L 398.111 219.636 L 398.111 292.364 L 382.983 292.364 L 382.983 219.636 L 382.983 219.636 Z  M 435.043 293.429 L 435.043 293.429 L 435.043 293.429 Q 426.626 293.429 420.572 290.002 L 420.572 290.002 L 420.572 290.002 Q 414.517 286.575 411.25 280.272 L 411.25 280.272 L 411.25 280.272 Q 407.983 273.969 407.983 265.339 L 407.983 265.339 L 407.983 265.339 Q 407.983 256.923 411.25 250.567 L 411.25 250.567 L 411.25 250.567 Q 414.517 244.21 420.465 240.659 L 420.465 240.659 L 420.465 240.659 Q 426.413 237.108 434.439 237.108 L 434.439 237.108 L 434.439 237.108 Q 439.837 237.108 444.506 238.83 L 444.506 238.83 L 444.506 238.83 Q 449.176 240.553 452.674 243.997 L 452.674 243.997 L 452.674 243.997 Q 456.172 247.442 458.125 252.644 L 458.125 252.644 L 458.125 252.644 Q 460.078 257.847 460.078 264.807 L 460.078 264.807 L 460.078 268.962 L 414.02 268.962 L 414.02 259.587 L 445.838 259.587 L 445.838 259.587 Q 445.838 256.32 444.418 253.798 L 444.418 253.798 L 444.418 253.798 Q 442.997 251.277 440.494 249.839 L 440.494 249.839 L 440.494 249.839 Q 437.99 248.401 434.688 248.401 L 434.688 248.401 L 434.688 248.401 Q 431.243 248.401 428.597 249.981 L 428.597 249.981 L 428.597 249.981 Q 425.952 251.561 424.46 254.207 L 424.46 254.207 L 424.46 254.207 Q 422.969 256.852 422.933 260.084 L 422.933 260.084 L 422.933 268.997 L 422.933 268.997 Q 422.933 273.045 424.442 275.993 L 424.442 275.993 L 424.442 275.993 Q 425.952 278.94 428.722 280.538 L 428.722 280.538 L 428.722 280.538 Q 431.491 282.136 435.291 282.136 L 435.291 282.136 L 435.291 282.136 Q 437.813 282.136 439.908 281.426 L 439.908 281.426 L 439.908 281.426 Q 442.003 280.716 443.494 279.295 L 443.494 279.295 L 443.494 279.295 Q 444.986 277.875 445.767 275.815 L 445.767 275.815 L 459.759 276.739 L 459.759 276.739 Q 458.693 281.781 455.408 285.528 L 455.408 285.528 L 455.408 285.528 Q 452.124 289.274 446.957 291.352 L 446.957 291.352 L 446.957 291.352 Q 441.79 293.429 435.043 293.429 Z " fill="url(#_lgradient_0)" />
    </g>
</svg>